<svg xmlns="http://www.w3.org/2000/svg" viewBox="0 0 1200 630">
  <!-- Background -->
  <rect width="1200" height="630" fill="#0A0F1E"/>

  <!-- Circuit pattern background -->
  <g opacity="0.1">
    <line x1="0" y1="100" x2="1200" y2="100" stroke="#3B82F6" stroke-width="1"/>
    <line x1="0" y1="200" x2="1200" y2="200" stroke="#3B82F6" stroke-width="1"/>
    <line x1="0" y1="300" x2="1200" y2="300" stroke="#3B82F6" stroke-width="1"/>
    <line x1="0" y1="400" x2="1200" y2="400" stroke="#3B82F6" stroke-width="1"/>
    <line x1="0" y1="500" x2="1200" y2="500" stroke="#3B82F6" stroke-width="1"/>
    <line x1="200" y1="0" x2="200" y2="630" stroke="#3B82F6" stroke-width="1"/>
    <line x1="400" y1="0" x2="400" y2="630" stroke="#3B82F6" stroke-width="1"/>
    <line x1="600" y1="0" x2="600" y2="630" stroke="#3B82F6" stroke-width="1"/>
    <line x1="800" y1="0" x2="800" y2="630" stroke="#3B82F6" stroke-width="1"/>
    <line x1="1000" y1="0" x2="1000" y2="630" stroke="#3B82F6" stroke-width="1"/>
  </g>

  <!-- Logo Circle -->
  <circle cx="300" cy="315" r="120" fill="none" stroke="#D4AF37" stroke-width="4"/>
  <path d="M 300 215 L 340 315 L 300 415 L 260 315 Z" fill="#3B82F6" opacity="0.8"/>
  <circle cx="300" cy="315" r="30" fill="#D4AF37"/>

  <!-- Text -->
  <text x="480" y="280" font-family="Arial, sans-serif" font-size="72" font-weight="bold" fill="#FFFFFF">
    OPTIMECA
  </text>
  <text x="480" y="340" font-family="Arial, sans-serif" font-size="32" fill="#D4AF37">
    Reprogrammation Moteur Expert
  </text>
  <text x="480" y="390" font-family="Arial, sans-serif" font-size="28" fill="#9CA3AF">
    Stage 1/2 • E85 • FAP/EGR • AdBlue
  </text>
  <text x="480" y="440" font-family="Arial, sans-serif" font-size="24" fill="#3B82F6">
    📍 Rabastens (81) • 📞 06 80 40 79 88
  </text>

  <!-- Bottom bar -->
  <rect y="580" width="1200" height="50" fill="#D4AF37" opacity="0.2"/>
  <text x="600" y="612" font-family="Arial, sans-serif" font-size="20" fill="#FFFFFF" text-anchor="middle">
    optimeca.org
  </text>
</svg>
