<svg xmlns="http://www.w3.org/2000/svg" viewBox="0 0 37 37" shape-rendering="crispEdges">
  <rect width="37" height="37" fill="#ffffff"/>
  <path fill="#000000" d="M0,0h7v1h-7zM10,0h1v1h-1zM12,0h1v1h-1zM16,0h2v1h-2zM21,0h1v1h-1zM24,0h2v1h-2zM30,0h7v1h-7zM0,1h1v1h-1zM6,1h1v1h-1zM9,1h1v1h-1zM11,1h1v1h-1zM13,1h2v1h-2zM16,1h2v1h-2zM20,1h2v1h-2zM24,1h2v1h-2zM27,1h1v1h-1zM30,1h1v1h-1zM36,1h1v1h-1zM0,2h1v1h-1zM2,2h3v1h-3zM6,2h1v1h-1zM9,2h1v1h-1zM11,2h2v1h-2zM14,2h1v1h-1zM16,2h1v1h-1zM18,2h1v1h-1zM20,2h2v1h-2zM24,2h1v1h-1zM27,2h1v1h-1zM30,2h1v1h-1zM32,2h3v1h-3zM36,2h1v1h-1zM0,3h1v1h-1zM2,3h3v1h-3zM6,3h1v1h-1zM8,3h1v1h-1zM10,3h2v1h-2zM13,3h1v1h-1zM15,3h3v1h-3zM19,3h1v1h-1zM21,3h3v1h-3zM25,3h2v1h-2zM28,3h1v1h-1zM30,3h1v1h-1zM32,3h3v1h-3zM36,3h1v1h-1zM0,4h1v1h-1zM2,4h3v1h-3zM6,4h1v1h-1zM8,4h2v1h-2zM11,4h1v1h-1zM13,4h2v1h-2zM16,4h1v1h-1zM18,4h1v1h-1zM20,4h1v1h-1zM22,4h1v1h-1zM24,4h2v1h-2zM27,4h1v1h-1zM30,4h1v1h-1zM32,4h3v1h-3zM36,4h1v1h-1zM0,5h1v1h-1zM6,5h1v1h-1zM8,5h1v1h-1zM10,5h1v1h-1zM12,5h2v1h-2zM15,5h1v1h-1zM17,5h1v1h-1zM19,5h1v1h-1zM21,5h1v1h-1zM23,5h1v1h-1zM26,5h2v1h-2zM30,5h1v1h-1zM36,5h1v1h-1zM0,6h7v1h-7zM8,6h1v1h-1zM10,6h1v1h-1zM12,6h1v1h-1zM14,6h1v1h-1zM16,6h1v1h-1zM18,6h1v1h-1zM20,6h1v1h-1zM22,6h1v1h-1zM24,6h1v1h-1zM26,6h1v1h-1zM28,6h1v1h-1zM30,6h7v1h-7zM8,7h2v1h-2zM11,7h3v1h-3zM16,7h1v1h-1zM18,7h1v1h-1zM21,7h1v1h-1zM23,7h3v1h-3zM0,8h1v1h-1zM3,8h1v1h-1zM5,8h1v1h-1zM8,8h1v1h-1zM10,8h1v1h-1zM13,8h1v1h-1zM16,8h1v1h-1zM18,8h1v1h-1zM20,8h1v1h-1zM23,8h1v1h-1zM26,8h2v1h-2zM29,8h3v1h-3zM33,8h2v1h-2zM0,9h1v1h-1zM2,9h4v1h-4zM8,9h4v1h-4zM14,9h2v1h-2zM17,9h3v1h-3zM21,9h2v1h-2zM24,9h1v1h-1zM26,9h2v1h-2zM30,9h1v1h-1zM32,9h1v1h-1zM34,9h3v1h-3zM0,10h2v1h-2zM3,10h1v1h-1zM5,10h2v1h-2zM8,10h1v1h-1zM10,10h1v1h-1zM12,10h3v1h-3zM16,10h3v1h-3zM20,10h1v1h-1zM22,10h2v1h-2zM25,10h3v1h-3zM29,10h1v1h-1zM31,10h1v1h-1zM34,10h1v1h-1zM36,10h1v1h-1zM1,11h1v1h-1zM3,11h1v1h-1zM5,11h1v1h-1zM7,11h1v1h-1zM9,11h1v1h-1zM11,11h1v1h-1zM13,11h1v1h-1zM15,11h2v1h-2zM18,11h2v1h-2zM21,11h1v1h-1zM23,11h1v1h-1zM25,11h2v1h-2zM28,11h2v1h-2zM31,11h1v1h-1zM34,11h1v1h-1zM0,12h1v1h-1zM2,12h1v1h-1zM4,12h1v1h-1zM6,12h1v1h-1zM9,12h2v1h-2zM12,12h1v1h-1zM15,12h1v1h-1zM17,12h1v1h-1zM20,12h1v1h-1zM23,12h1v1h-1zM25,12h1v1h-1zM27,12h2v1h-2zM30,12h1v1h-1zM32,12h3v1h-3zM0,13h1v1h-1zM2,13h1v1h-1zM4,13h1v1h-1zM6,13h1v1h-1zM9,13h2v1h-2zM12,13h1v1h-1zM14,13h1v1h-1zM17,13h1v1h-1zM19,13h1v1h-1zM21,13h1v1h-1zM24,13h1v1h-1zM26,13h3v1h-3zM30,13h2v1h-2zM34,13h1v1h-1zM36,13h1v1h-1zM1,14h1v1h-1zM3,14h2v1h-2zM6,14h1v1h-1zM10,14h3v1h-3zM14,14h3v1h-3zM18,14h2v1h-2zM21,14h1v1h-1zM23,14h2v1h-2zM26,14h1v1h-1zM28,14h1v1h-1zM31,14h1v1h-1zM33,14h1v1h-1zM35,14h2v1h-2zM0,15h3v1h-3zM4,15h1v1h-1zM6,15h2v1h-2zM9,15h2v1h-2zM13,15h1v1h-1zM15,15h1v1h-1zM17,15h1v1h-1zM19,15h3v1h-3zM23,15h2v1h-2zM26,15h1v1h-1zM28,15h2v1h-2zM31,15h2v1h-2zM34,15h1v1h-1zM1,16h1v1h-1zM3,16h1v1h-1zM6,16h1v1h-1zM9,16h1v1h-1zM11,16h1v1h-1zM14,16h1v1h-1zM16,16h1v1h-1zM19,16h1v1h-1zM22,16h1v1h-1zM24,16h1v1h-1zM26,16h1v1h-1zM28,16h1v1h-1zM30,16h3v1h-3zM34,16h1v1h-1zM1,17h1v1h-1zM3,17h2v1h-2zM6,17h1v1h-1zM8,17h1v1h-1zM11,17h1v1h-1zM14,17h1v1h-1zM18,17h2v1h-2zM21,17h1v1h-1zM24,17h2v1h-2zM27,17h3v1h-3zM31,17h2v1h-2zM34,17h1v1h-1zM36,17h1v1h-1zM0,18h2v1h-2zM3,18h3v1h-3zM8,18h4v1h-4zM13,18h1v1h-1zM15,18h1v1h-1zM17,18h1v1h-1zM19,18h1v1h-1zM21,18h1v1h-1zM23,18h2v1h-2zM26,18h1v1h-1zM28,18h1v1h-1zM30,18h3v1h-3zM35,18h2v1h-2zM0,19h1v1h-1zM3,19h1v1h-1zM5,19h3v1h-3zM9,19h2v1h-2zM12,19h1v1h-1zM14,19h4v1h-4zM19,19h1v1h-1zM21,19h1v1h-1zM23,19h1v1h-1zM25,19h1v1h-1zM27,19h1v1h-1zM30,19h2v1h-2zM33,19h1v1h-1zM35,19h2v1h-2zM0,20h1v1h-1zM2,20h1v1h-1zM4,20h1v1h-1zM6,20h2v1h-2zM9,20h1v1h-1zM12,20h1v1h-1zM14,20h2v1h-2zM17,20h1v1h-1zM19,20h1v1h-1zM21,20h3v1h-3zM25,20h1v1h-1zM27,20h2v1h-2zM30,20h2v1h-2zM33,20h1v1h-1zM35,20h2v1h-2zM0,21h3v1h-3zM4,21h1v1h-1zM6,21h2v1h-2zM9,21h1v1h-1zM11,21h1v1h-1zM13,21h1v1h-1zM15,21h1v1h-1zM18,21h1v1h-1zM20,21h2v1h-2zM23,21h2v1h-2zM26,21h1v1h-1zM28,21h1v1h-1zM30,21h2v1h-2zM33,21h1v1h-1zM36,21h1v1h-1zM1,22h1v1h-1zM3,22h1v1h-1zM5,22h1v1h-1zM7,22h1v1h-1zM9,22h2v1h-2zM12,22h1v1h-1zM14,22h1v1h-1zM16,22h3v1h-3zM20,22h1v1h-1zM22,22h1v1h-1zM24,22h1v1h-1zM26,22h2v1h-2zM29,22h3v1h-3zM33,22h1v1h-1zM35,22h2v1h-2zM0,23h2v1h-2zM3,23h1v1h-1zM5,23h1v1h-1zM7,23h1v1h-1zM10,23h2v1h-2zM13,23h4v1h-4zM18,23h1v1h-1zM20,23h2v1h-2zM23,23h1v1h-1zM25,23h1v1h-1zM27,23h1v1h-1zM30,23h1v1h-1zM33,23h1v1h-1zM35,23h1v1h-1zM0,24h2v1h-2zM3,24h2v1h-2zM6,24h1v1h-1zM8,24h1v1h-1zM11,24h1v1h-1zM14,24h1v1h-1zM16,24h1v1h-1zM18,24h1v1h-1zM20,24h1v1h-1zM22,24h1v1h-1zM24,24h1v1h-1zM26,24h1v1h-1zM28,24h1v1h-1zM31,24h3v1h-3zM35,24h2v1h-2zM0,25h1v1h-1zM2,25h1v1h-1zM4,25h2v1h-2zM7,25h1v1h-1zM9,25h2v1h-2zM12,25h3v1h-3zM16,25h1v1h-1zM18,25h2v1h-2zM21,25h2v1h-2zM24,25h2v1h-2zM27,25h4v1h-4zM32,25h1v1h-1zM34,25h1v1h-1zM36,25h1v1h-1zM2,26h1v1h-1zM4,26h1v1h-1zM6,26h1v1h-1zM9,26h2v1h-2zM12,26h1v1h-1zM14,26h2v1h-2zM17,26h1v1h-1zM20,26h1v1h-1zM22,26h1v1h-1zM24,26h2v1h-2zM27,26h1v1h-1zM29,26h2v1h-2zM32,26h1v1h-1zM34,26h1v1h-1zM1,27h1v1h-1zM3,27h3v1h-3zM7,27h2v1h-2zM10,27h2v1h-2zM13,27h2v1h-2zM16,27h1v1h-1zM18,27h1v1h-1zM20,27h1v1h-1zM23,27h1v1h-1zM25,27h1v1h-1zM28,27h1v1h-1zM31,27h1v1h-1zM33,27h1v1h-1zM35,27h1v1h-1zM8,28h2v1h-2zM11,28h1v1h-1zM13,28h1v1h-1zM15,28h1v1h-1zM17,28h2v1h-2zM20,28h2v1h-2zM23,28h1v1h-1zM25,28h2v1h-2zM28,28h2v1h-2zM31,28h1v1h-1zM33,28h1v1h-1zM35,28h2v1h-2zM0,29h7v1h-7zM8,29h1v1h-1zM10,29h3v1h-3zM14,29h1v1h-1zM16,29h1v1h-1zM19,29h1v1h-1zM21,29h1v1h-1zM23,29h1v1h-1zM25,29h2v1h-2zM28,29h1v1h-1zM30,29h1v1h-1zM33,29h2v1h-2zM0,30h1v1h-1zM6,30h1v1h-1zM8,30h2v1h-2zM11,30h3v1h-3zM15,30h1v1h-1zM17,30h2v1h-2zM20,30h1v1h-1zM23,30h1v1h-1zM25,30h1v1h-1zM27,30h1v1h-1zM29,30h2v1h-2zM32,30h1v1h-1zM34,30h3v1h-3zM0,31h1v1h-1zM2,31h3v1h-3zM6,31h1v1h-1zM8,31h1v1h-1zM10,31h1v1h-1zM13,31h1v1h-1zM15,31h1v1h-1zM18,31h1v1h-1zM20,31h1v1h-1zM23,31h1v1h-1zM25,31h1v1h-1zM27,31h1v1h-1zM29,31h1v1h-1zM31,31h3v1h-3zM0,32h1v1h-1zM2,32h3v1h-3zM6,32h1v1h-1zM9,32h1v1h-1zM11,32h2v1h-2zM15,32h1v1h-1zM17,32h2v1h-2zM20,32h2v1h-2zM23,32h2v1h-2zM26,32h1v1h-1zM28,32h1v1h-1zM30,32h1v1h-1zM32,32h2v1h-2zM35,32h1v1h-1zM0,33h1v1h-1zM2,33h3v1h-3zM6,33h1v1h-1zM8,33h1v1h-1zM10,33h2v1h-2zM13,33h1v1h-1zM15,33h1v1h-1zM17,33h1v1h-1zM19,33h2v1h-2zM22,33h2v1h-2zM25,33h3v1h-3zM29,33h2v1h-2zM32,33h2v1h-2zM35,33h2v1h-2zM0,34h1v1h-1zM6,34h1v1h-1zM8,34h1v1h-1zM10,34h2v1h-2zM13,34h1v1h-1zM15,34h4v1h-4zM20,34h2v1h-2zM23,34h1v1h-1zM25,34h2v1h-2zM28,34h1v1h-1zM31,34h1v1h-1zM33,34h1v1h-1zM35,34h1v1h-1zM0,35h7v1h-7zM9,35h1v1h-1zM11,35h1v1h-1zM13,35h1v1h-1zM15,35h1v1h-1zM18,35h1v1h-1zM20,35h1v1h-1zM22,35h1v1h-1zM24,35h1v1h-1zM27,35h2v1h-2zM30,35h2v1h-2zM33,35h1v1h-1zM35,35h2v1h-2zM9,36h1v1h-1zM11,36h1v1h-1zM13,36h1v1h-1zM15,36h2v1h-2zM18,36h1v1h-1zM20,36h2v1h-2zM23,36h1v1h-1zM26,36h1v1h-1zM28,36h2v1h-2zM31,36h2v1h-2zM34,36h3v1h-3z"/>
</svg>
