<svg xmlns="http://www.w3.org/2000/svg" viewBox="0 0 33 33" shape-rendering="crispEdges">
  <rect width="33" height="33" fill="#ffffff"/>
  <path fill="#000000" d="M0,0h7v1h-7zM8,0h1v1h-1zM11,0h1v1h-1zM14,0h3v1h-3zM18,0h1v1h-1zM21,0h4v1h-4zM26,0h7v1h-7zM0,1h1v1h-1zM6,1h1v1h-1zM9,1h1v1h-1zM11,1h2v1h-2zM14,1h1v1h-1zM16,1h1v1h-1zM18,1h1v1h-1zM20,1h1v1h-1zM26,1h1v1h-1zM32,1h1v1h-1zM0,2h1v1h-1zM2,2h3v1h-3zM6,2h1v1h-1zM8,2h2v1h-2zM13,2h1v1h-1zM15,2h1v1h-1zM17,2h3v1h-3zM23,2h1v1h-1zM26,2h1v1h-1zM28,2h3v1h-3zM32,2h1v1h-1zM0,3h1v1h-1zM2,3h3v1h-3zM6,3h1v1h-1zM8,3h3v1h-3zM12,3h1v1h-1zM15,3h1v1h-1zM17,3h1v1h-1zM20,3h2v1h-2zM23,3h1v1h-1zM26,3h1v1h-1zM28,3h3v1h-3zM32,3h1v1h-1zM0,4h1v1h-1zM2,4h3v1h-3zM6,4h1v1h-1zM8,4h2v1h-2zM11,4h2v1h-2zM14,4h1v1h-1zM16,4h3v1h-3zM20,4h2v1h-2zM23,4h1v1h-1zM26,4h1v1h-1zM28,4h3v1h-3zM32,4h1v1h-1zM0,5h1v1h-1zM6,5h1v1h-1zM8,5h1v1h-1zM10,5h1v1h-1zM12,5h4v1h-4zM17,5h1v1h-1zM20,5h1v1h-1zM23,5h1v1h-1zM26,5h1v1h-1zM32,5h1v1h-1zM0,6h7v1h-7zM8,6h1v1h-1zM10,6h1v1h-1zM12,6h1v1h-1zM14,6h1v1h-1zM16,6h1v1h-1zM18,6h1v1h-1zM20,6h1v1h-1zM22,6h1v1h-1zM24,6h1v1h-1zM26,6h7v1h-7zM8,7h1v1h-1zM10,7h5v1h-5zM16,7h1v1h-1zM18,7h1v1h-1zM20,7h3v1h-3zM24,7h1v1h-1zM0,8h1v1h-1zM2,8h2v1h-2zM5,8h1v1h-1zM9,8h1v1h-1zM11,8h1v1h-1zM13,8h2v1h-2zM16,8h1v1h-1zM18,8h1v1h-1zM21,8h1v1h-1zM24,8h3v1h-3zM28,8h1v1h-1zM30,8h3v1h-3zM0,9h2v1h-2zM3,9h1v1h-1zM5,9h1v1h-1zM9,9h5v1h-5zM15,9h1v1h-1zM17,9h2v1h-2zM21,9h1v1h-1zM23,9h3v1h-3zM27,9h1v1h-1zM29,9h1v1h-1zM31,9h1v1h-1zM0,10h1v1h-1zM2,10h1v1h-1zM5,10h1v1h-1zM7,10h1v1h-1zM9,10h2v1h-2zM12,10h1v1h-1zM16,10h1v1h-1zM18,10h1v1h-1zM20,10h1v1h-1zM22,10h1v1h-1zM24,10h3v1h-3zM29,10h1v1h-1zM0,11h1v1h-1zM3,11h3v1h-3zM8,11h1v1h-1zM11,11h1v1h-1zM13,11h1v1h-1zM15,11h2v1h-2zM18,11h2v1h-2zM21,11h1v1h-1zM23,11h1v1h-1zM26,11h1v1h-1zM28,11h2v1h-2zM32,11h1v1h-1zM0,12h1v1h-1zM2,12h3v1h-3zM6,12h1v1h-1zM9,12h1v1h-1zM11,12h2v1h-2zM14,12h1v1h-1zM17,12h2v1h-2zM21,12h2v1h-2zM24,12h2v1h-2zM27,12h1v1h-1zM29,12h1v1h-1zM31,12h1v1h-1zM1,13h1v1h-1zM4,13h1v1h-1zM6,13h1v1h-1zM8,13h4v1h-4zM15,13h2v1h-2zM18,13h1v1h-1zM20,13h1v1h-1zM22,13h1v1h-1zM24,13h1v1h-1zM26,13h1v1h-1zM28,13h3v1h-3zM0,14h1v1h-1zM2,14h1v1h-1zM4,14h2v1h-2zM7,14h2v1h-2zM10,14h3v1h-3zM14,14h2v1h-2zM17,14h3v1h-3zM21,14h1v1h-1zM24,14h2v1h-2zM27,14h1v1h-1zM29,14h1v1h-1zM31,14h1v1h-1zM0,15h2v1h-2zM4,15h1v1h-1zM6,15h1v1h-1zM8,15h1v1h-1zM10,15h1v1h-1zM13,15h1v1h-1zM15,15h1v1h-1zM19,15h1v1h-1zM21,15h1v1h-1zM24,15h1v1h-1zM26,15h2v1h-2zM29,15h1v1h-1zM31,15h1v1h-1zM0,16h1v1h-1zM3,16h1v1h-1zM6,16h2v1h-2zM9,16h1v1h-1zM12,16h2v1h-2zM15,16h1v1h-1zM18,16h2v1h-2zM21,16h1v1h-1zM23,16h1v1h-1zM25,16h1v1h-1zM27,16h1v1h-1zM30,16h1v1h-1zM32,16h1v1h-1zM2,17h1v1h-1zM4,17h1v1h-1zM6,17h1v1h-1zM9,17h2v1h-2zM12,17h1v1h-1zM14,17h1v1h-1zM16,17h1v1h-1zM18,17h2v1h-2zM21,17h1v1h-1zM23,17h1v1h-1zM25,17h3v1h-3zM29,17h1v1h-1zM31,17h2v1h-2zM0,18h1v1h-1zM2,18h2v1h-2zM5,18h4v1h-4zM11,18h1v1h-1zM13,18h1v1h-1zM15,18h1v1h-1zM18,18h2v1h-2zM21,18h1v1h-1zM24,18h1v1h-1zM26,18h2v1h-2zM29,18h1v1h-1zM32,18h1v1h-1zM2,19h1v1h-1zM4,19h3v1h-3zM9,19h1v1h-1zM11,19h1v1h-1zM13,19h2v1h-2zM16,19h4v1h-4zM21,19h1v1h-1zM23,19h2v1h-2zM26,19h1v1h-1zM28,19h1v1h-1zM30,19h3v1h-3zM0,20h2v1h-2zM3,20h1v1h-1zM6,20h1v1h-1zM9,20h1v1h-1zM11,20h1v1h-1zM14,20h1v1h-1zM16,20h4v1h-4zM23,20h1v1h-1zM25,20h3v1h-3zM29,20h1v1h-1zM31,20h1v1h-1zM0,21h1v1h-1zM2,21h3v1h-3zM6,21h1v1h-1zM8,21h1v1h-1zM10,21h3v1h-3zM14,21h1v1h-1zM17,21h2v1h-2zM20,21h1v1h-1zM23,21h2v1h-2zM26,21h1v1h-1zM28,21h1v1h-1zM30,21h2v1h-2zM1,22h1v1h-1zM5,22h1v1h-1zM7,22h1v1h-1zM10,22h1v1h-1zM13,22h1v1h-1zM15,22h1v1h-1zM17,22h1v1h-1zM19,22h3v1h-3zM23,22h1v1h-1zM25,22h2v1h-2zM28,22h1v1h-1zM30,22h1v1h-1zM1,23h2v1h-2zM5,23h1v1h-1zM8,23h1v1h-1zM10,23h1v1h-1zM12,23h4v1h-4zM17,23h3v1h-3zM21,23h2v1h-2zM24,23h1v1h-1zM26,23h2v1h-2zM29,23h1v1h-1zM31,23h1v1h-1zM1,24h2v1h-2zM4,24h1v1h-1zM6,24h1v1h-1zM10,24h1v1h-1zM13,24h3v1h-3zM17,24h1v1h-1zM19,24h3v1h-3zM23,24h1v1h-1zM26,24h1v1h-1zM28,24h1v1h-1zM30,24h1v1h-1zM32,24h1v1h-1zM8,25h3v1h-3zM13,25h1v1h-1zM16,25h1v1h-1zM19,25h1v1h-1zM21,25h1v1h-1zM23,25h3v1h-3zM27,25h1v1h-1zM30,25h1v1h-1zM0,26h7v1h-7zM8,26h1v1h-1zM10,26h3v1h-3zM14,26h1v1h-1zM16,26h1v1h-1zM18,26h1v1h-1zM21,26h1v1h-1zM23,26h1v1h-1zM25,26h2v1h-2zM28,26h2v1h-2zM31,26h1v1h-1zM0,27h1v1h-1zM6,27h1v1h-1zM8,27h1v1h-1zM11,27h1v1h-1zM13,27h4v1h-4zM18,27h1v1h-1zM20,27h1v1h-1zM22,27h2v1h-2zM25,27h1v1h-1zM28,27h1v1h-1zM30,27h3v1h-3zM0,28h1v1h-1zM2,28h3v1h-3zM6,28h1v1h-1zM8,28h1v1h-1zM10,28h2v1h-2zM13,28h1v1h-1zM15,28h1v1h-1zM17,28h4v1h-4zM22,28h1v1h-1zM24,28h2v1h-2zM27,28h1v1h-1zM29,28h1v1h-1zM31,28h1v1h-1zM0,29h1v1h-1zM2,29h3v1h-3zM6,29h1v1h-1zM8,29h2v1h-2zM11,29h2v1h-2zM14,29h3v1h-3zM18,29h3v1h-3zM22,29h2v1h-2zM25,29h2v1h-2zM28,29h1v1h-1zM30,29h1v1h-1zM0,30h1v1h-1zM2,30h3v1h-3zM6,30h1v1h-1zM10,30h2v1h-2zM13,30h1v1h-1zM15,30h1v1h-1zM17,30h2v1h-2zM20,30h1v1h-1zM22,30h2v1h-2zM25,30h1v1h-1zM27,30h3v1h-3zM31,30h2v1h-2zM0,31h1v1h-1zM6,31h1v1h-1zM9,31h2v1h-2zM12,31h1v1h-1zM14,31h2v1h-2zM17,31h1v1h-1zM19,31h1v1h-1zM21,31h1v1h-1zM24,31h2v1h-2zM27,31h1v1h-1zM29,31h1v1h-1zM32,31h1v1h-1zM0,32h7v1h-7zM9,32h1v1h-1zM11,32h1v1h-1zM13,32h1v1h-1zM15,32h1v1h-1zM17,32h1v1h-1zM21,32h1v1h-1zM23,32h1v1h-1zM25,32h2v1h-2zM28,32h2v1h-2zM31,32h2v1h-2z"/>
</svg>
